<svg xmlns="http://www.w3.org/2000/svg" xmlns:xlink="http://www.w3.org/1999/xlink" width="95.275" height="95.275" viewBox="0 0 95.275 95.275">
  <defs>
    <filter id="Trazado_380" x="0" y="0" width="95.275" height="95.275" filterUnits="userSpaceOnUse">
      <feOffset dy="3" input="SourceAlpha"/>
      <feGaussianBlur stdDeviation="3" result="blur"/>
      <feFlood flood-opacity="0.161"/>
      <feComposite operator="in" in2="blur"/>
      <feComposite in="SourceGraphic"/>
    </filter>
  </defs>
  <g id="Grupo_123" data-name="Grupo 123" transform="translate(11.5 8.5)">
    <g transform="matrix(1, 0, 0, 1, -11.5, -8.5)" filter="url(#Trazado_380)">
      <path id="Trazado_380-2" data-name="Trazado 380" d="M36.146,0h-.018A36.115,36.115,0,0,0,6.88,57.318l-4.5,13.425,13.89-4.44A36.131,36.131,0,1,0,36.146,0Z" transform="translate(11.5 8.5)" fill="#27d84b" stroke="#fff" stroke-width="5"/>
    </g>
    <path id="Trazado_381" data-name="Trazado 381" d="M145.408,148.4c-.791,2.234-3.931,4.087-6.436,4.628-1.714.365-3.952.656-11.486-2.468-9.638-3.993-15.844-13.786-16.328-14.421-.463-.635-3.894-5.186-3.894-9.892a10.47,10.47,0,0,1,3.353-7.981,4.765,4.765,0,0,1,3.353-1.177c.406,0,.771.021,1.1.037.963.041,1.447.1,2.082,1.619.791,1.906,2.718,6.612,2.947,7.1a1.952,1.952,0,0,1,.139,1.775,5.667,5.667,0,0,1-1.062,1.5c-.484.558-.943.984-1.427,1.582-.443.521-.943,1.078-.385,2.041a29.11,29.11,0,0,0,5.321,6.612,24.11,24.11,0,0,0,7.69,4.743,2.074,2.074,0,0,0,2.312-.365,39.686,39.686,0,0,0,2.562-3.394,1.83,1.83,0,0,1,2.353-.713c.885.307,5.571,2.624,6.534,3.1s1.6.713,1.832,1.119A8.166,8.166,0,0,1,145.408,148.4Z" transform="translate(-90.18 -98.746)" fill="#fafafa"/>
  </g>
</svg>
