<?xml version="1.0" encoding="utf-8"?>
<!-- Generator: Adobe Illustrator 16.0.3, SVG Export Plug-In . SVG Version: 6.00 Build 0)  -->
<!DOCTYPE svg PUBLIC "-//W3C//DTD SVG 1.1//EN" "http://www.w3.org/Graphics/SVG/1.1/DTD/svg11.dtd">
<svg version="1.1" id="Capa_1" xmlns="http://www.w3.org/2000/svg" xmlns:xlink="http://www.w3.org/1999/xlink" x="0px" y="0px"
	 width="50px" height="50px" viewBox="0 0 50 50" enable-background="new 0 0 50 50" xml:space="preserve">
<path fill="#fff" d="M145,1c13.234,0,24,10.767,24,24s-10.766,24-24,24s-24-10.767-24-24S131.766,1,145,1 M145,0
	c-13.807,0-25,11.193-25,25s11.193,25,25,25s25-11.193,25-25S158.807,0,145,0"/>
<path fill="#fff" d="M130.5,26.824v-3.646c0.04-0.622,0.072-1.245,0.121-1.867c0.078-0.989,0.087-1.993,0.404-2.945
	c0.185-0.553,0.393-1.126,0.726-1.6c0.72-1.026,1.827-1.418,3.058-1.474c2.246-0.104,4.492-0.219,6.74-0.258
	c4.554-0.08,9.107-0.034,13.656,0.259c0.447,0.028,0.906,0.102,1.332,0.236c1.402,0.443,2.128,1.472,2.484,2.81
	c0.329,1.238,0.405,2.509,0.439,3.773c0.052,1.922,0.052,3.847,0,5.769c-0.034,1.255-0.096,2.519-0.438,3.746
	c-0.205,0.732-0.48,1.43-1.051,1.983c-0.783,0.761-1.76,1.046-2.824,1.1c-1.709,0.084-3.416,0.162-5.125,0.218
	c-4.035,0.133-8.07,0.061-12.103-0.068c-1.206-0.038-2.415-0.124-3.613-0.265c-1.571-0.185-2.653-1.001-3.157-2.507
	c-0.371-1.107-0.442-2.252-0.529-3.397C130.572,28.069,130.54,27.446,130.5,26.824 M142.021,28.707
	c2.635-1.341,5.229-2.658,7.867-3.999c-2.65-1.356-5.244-2.683-7.867-4.025V28.707z"/>
<path fill="#fff" d="M85.026,15.034c1.155,0,2.31-0.01,3.465,0.004c0.851,0.01,1.697,0.085,2.523,0.318
	c1.322,0.374,2.346,1.133,3.051,2.315c0.492,0.827,0.776,1.726,0.838,2.678c0.065,0.995,0.081,1.995,0.089,2.994
	c0.012,1.642,0.008,3.283-0.003,4.925c-0.006,0.885-0.064,1.768-0.292,2.631c-0.48,1.814-1.634,3.006-3.382,3.645
	c-0.78,0.286-1.594,0.396-2.419,0.421C88.315,34.984,87.735,35,87.154,35c-1.879-0.001-3.759-0.002-5.638-0.019
	c-0.948-0.009-1.89-0.096-2.798-0.399c-1.597-0.534-2.663-1.61-3.252-3.173c-0.274-0.727-0.424-1.486-0.433-2.258
	c-0.027-2.337-0.037-4.675-0.033-7.012c0.002-0.702,0.041-1.406,0.115-2.104c0.098-0.926,0.38-1.803,0.91-2.58
	c0.638-0.935,1.506-1.577,2.569-1.962c0.808-0.292,1.645-0.422,2.499-0.438c1.311-0.026,2.622-0.037,3.933-0.056
	C85.026,15.011,85.026,15.023,85.026,15.034 M85.139,16.792v-0.003c-0.64,0-1.281-0.003-1.921,0
	c-1.129,0.006-2.258,0.001-3.374,0.215c-1.388,0.268-2.542,1.191-2.837,2.722c-0.189,0.984-0.231,1.984-0.244,2.983
	c-0.018,1.435-0.012,2.868-0.002,4.302c0.007,1.154,0.004,2.308,0.292,3.44c0.166,0.65,0.485,1.204,0.947,1.668
	c0.503,0.506,1.143,0.782,1.846,0.889c1.009,0.153,2.025,0.236,3.047,0.223c1.944-0.028,3.89,0.059,5.833-0.058
	c0.373-0.021,0.746-0.06,1.116-0.111c0.458-0.063,0.902-0.17,1.322-0.384c1.049-0.53,1.65-1.387,1.846-2.527
	c0.163-0.951,0.206-1.915,0.216-2.877c0.017-1.563,0.016-3.125,0-4.688c-0.009-0.852-0.036-1.703-0.178-2.549
	c-0.13-0.771-0.431-1.452-0.951-2.026c-0.564-0.621-1.305-0.935-2.125-1.025c-0.839-0.094-1.684-0.153-2.528-0.188
	C86.676,16.769,85.906,16.792,85.139,16.792"/>
<path fill="#fff" d="M90.094,25.022c0.037,2.7-2.228,5.184-5.237,5.13c-2.751-0.048-5.01-2.294-5.066-5.033
	c-0.057-2.765,2.186-5.247,5.16-5.261C87.918,19.847,90.154,22.337,90.094,25.022 M81.581,25.01
	c-0.057,1.879,1.631,3.294,3.293,3.322c1.893,0.03,3.421-1.498,3.44-3.24c0.021-1.955-1.453-3.439-3.383-3.447
	C83.069,21.637,81.538,23.196,81.581,25.01"/>
<path fill="#fff" d="M91.542,19.641c-0.01,0.648-0.585,1.205-1.226,1.213c-0.603,0.008-1.239-0.641-1.206-1.25
	c0.033-0.621,0.61-1.185,1.25-1.176C90.971,18.437,91.551,19.032,91.542,19.641"/>
<path fill="#fff" d="M85,1c13.234,0,24,10.767,24,24S98.234,49,85,49S61,38.233,61,25S71.766,1,85,1 M85,0
	C71.193,0,60,11.193,60,25s11.193,25,25,25s25-11.193,25-25S98.807,0,85,0"/>
<path fill="#fff" d="M25,1c13.234,0,24,10.767,24,24S38.234,49,25,49S1,38.233,1,25S11.766,1,25,1 M25,0C11.193,0,0,11.193,0,25
	s11.193,25,25,25s25-11.193,25-25S38.807,0,25,0"/>
<path fill="#fff" d="M25.619,34.996c-3.212,0-6.338,0.013-9.464-0.009c-0.8-0.006-1.148-0.468-1.151-1.392
	c-0.007-2.227-0.002-4.455-0.002-6.682c-0.001-3.46-0.002-6.92,0-10.38c0.001-1.195,0.334-1.532,1.52-1.532
	c5.664-0.003,11.328-0.003,16.992,0c1.138,0.001,1.484,0.351,1.484,1.495c0.002,5.664,0.002,11.328,0,16.992
	c0,1.151-0.345,1.504-1.471,1.508c-1.538,0.005-3.075,0.001-4.667,0.001V27.29h2.548c0.134-1.04,0.258-1.994,0.393-3.044h-2.95
	c0-0.838-0.025-1.589,0.008-2.338c0.026-0.604,0.38-0.959,0.992-1.003c0.656-0.046,1.314-0.065,2.009-0.099v-2.8
	c-0.911,0-1.808-0.067-2.691,0.015c-2.184,0.204-3.443,1.599-3.506,3.809c-0.021,0.757-0.003,1.516-0.003,2.348h-2.526v3.091h2.485
	V34.996z"/>
<path fill="#fff" d="M205,1c13.234,0,24,10.767,24,24s-10.766,24-24,24s-24-10.767-24-24S191.766,1,205,1 M205,0
	c-13.807,0-25,11.193-25,25s11.193,25,25,25s25-11.193,25-25S218.807,0,205,0"/>
<path fill="#fff" d="M195.002,25.001c0-2.692-0.007-5.385,0.004-8.075c0.004-0.735,0.289-1.339,0.971-1.704
	c0.287-0.154,0.604-0.214,0.916-0.215c5.404-0.007,10.81-0.01,16.215,0c0.736,0.002,1.352,0.305,1.678,1.002
	c0.128,0.272,0.204,0.598,0.205,0.899c0.012,5.395,0.014,10.788,0.003,16.184c-0.001,0.728-0.294,1.325-0.969,1.687
	c-0.287,0.154-0.604,0.214-0.916,0.215c-5.405,0.008-10.81,0.011-16.216,0c-0.735-0.002-1.334-0.313-1.686-0.997
	c-0.148-0.293-0.201-0.615-0.201-0.938C195,30.373,195.002,27.687,195.002,25.001 M205.961,23.58c0-0.188,0-0.386,0-0.582
	c-0.002-0.358-0.197-0.555-0.551-0.556c-0.691-0.001-1.382,0.016-2.072-0.006c-0.391-0.011-0.601,0.279-0.6,0.604
	c0.006,2.946,0.003,5.894,0.004,8.841c0,0.404,0.211,0.618,0.621,0.621c0.664,0.004,1.329,0.003,1.994,0
	c0.402-0.002,0.604-0.209,0.604-0.613c0-1.513-0.005-3.025,0.004-4.538c0-0.254,0.041-0.509,0.088-0.759
	c0.061-0.321,0.183-0.623,0.369-0.893c0.338-0.489,0.819-0.665,1.4-0.637c0.658,0.032,1.131,0.396,1.33,1.025
	c0.123,0.388,0.174,0.785,0.175,1.188c0.004,1.544,0.002,3.088,0.002,4.632c0,0.395,0.187,0.59,0.582,0.593
	c0.701,0.005,1.403,0.005,2.104-0.002c0.105-0.001,0.22-0.028,0.315-0.074c0.237-0.113,0.277-0.332,0.275-0.569
	c-0.007-1.581-0.001-3.162-0.022-4.742c-0.009-0.567-0.059-1.137-0.127-1.7c-0.076-0.623-0.279-1.207-0.623-1.74
	c-0.488-0.758-1.199-1.163-2.066-1.319c-0.586-0.105-1.176-0.097-1.762,0.002c-0.539,0.091-1.043,0.273-1.461,0.641
	C206.34,23.178,206.156,23.383,205.961,23.58 M198.18,27.467c0,1.475,0,2.951,0,4.426c0,0.364,0.183,0.591,0.539,0.599
	c0.707,0.019,1.412,0.018,2.119,0.003c0.327-0.006,0.512-0.21,0.549-0.535c0.006-0.067,0.006-0.137,0.006-0.203
	c0-2.863,0-5.726,0-8.587c0-0.067,0-0.137-0.008-0.203c-0.039-0.347-0.235-0.522-0.584-0.523c-0.668-0.001-1.338,0-2.008,0
	c-0.422,0-0.613,0.191-0.613,0.613C198.18,24.525,198.18,25.997,198.18,27.467 M197.715,19.576c0.002,1.125,0.928,2.056,2.058,2.065
	c1.12,0.011,2.073-0.938,2.073-2.065c0.002-1.133-0.932-2.067-2.065-2.07C198.651,17.503,197.713,18.442,197.715,19.576"/>
</svg>
