<?xml version="1.0" encoding="utf-8"?>
<!-- Generator: Adobe Illustrator 16.0.3, SVG Export Plug-In . SVG Version: 6.00 Build 0)  -->
<!DOCTYPE svg PUBLIC "-//W3C//DTD SVG 1.1//EN" "http://www.w3.org/Graphics/SVG/1.1/DTD/svg11.dtd">
<svg version="1.1" id="Capa_1" xmlns="http://www.w3.org/2000/svg" xmlns:xlink="http://www.w3.org/1999/xlink" x="0px" y="0px"
	 width="25px" height="25px" viewBox="0 0 25 25" enable-background="new 0 0 25 25" xml:space="preserve">
<path fill="#2CB742" d="M25,12.5C25,19.404,19.404,25,12.5,25C5.596,25,0,19.404,0,12.5C0,5.596,5.596,0,12.5,0
	C19.404,0,25,5.596,25,12.5"/>
<path fill="#FFFFFF" d="M5.357,20c0.066-0.244,0.13-0.475,0.193-0.705c0.285-1.033,0.569-2.066,0.852-3.1
	c0.007-0.028,0.002-0.066-0.012-0.093c-0.433-0.757-0.721-1.566-0.867-2.425c-0.101-0.598-0.127-1.198-0.082-1.804
	c0.075-0.991,0.339-1.929,0.793-2.813c0.435-0.848,1.014-1.585,1.733-2.213c0.786-0.686,1.677-1.188,2.674-1.503
	c0.457-0.145,0.924-0.242,1.401-0.297c0.54-0.061,1.081-0.065,1.622-0.008c1.006,0.104,1.955,0.398,2.84,0.888
	c0.703,0.388,1.328,0.877,1.871,1.465c0.897,0.97,1.498,2.096,1.795,3.381c0.16,0.7,0.218,1.408,0.172,2.124
	c-0.059,0.933-0.286,1.824-0.684,2.672c-0.455,0.968-1.09,1.801-1.902,2.498c-0.965,0.826-2.07,1.374-3.316,1.64
	c-0.589,0.125-1.184,0.181-1.786,0.158c-1.161-0.041-2.258-0.329-3.285-0.873c-0.03-0.016-0.073-0.022-0.104-0.014
	c-1.172,0.304-2.344,0.61-3.515,0.916C5.624,19.928,5.498,19.963,5.357,20 M7.15,18.23c0.024-0.005,0.034-0.008,0.044-0.01
	c0.715-0.186,1.431-0.369,2.145-0.561c0.116-0.031,0.203-0.02,0.306,0.043c0.857,0.523,1.79,0.82,2.792,0.895
	c0.618,0.048,1.232,0.004,1.836-0.139c1.417-0.334,2.583-1.068,3.487-2.203c0.812-1.021,1.251-2.189,1.323-3.492
	c0.039-0.667-0.032-1.324-0.211-1.968c-0.272-0.994-0.771-1.863-1.481-2.612c-0.567-0.598-1.231-1.068-1.987-1.402
	c-0.693-0.305-1.421-0.476-2.178-0.516c-0.635-0.034-1.26,0.025-1.875,0.183c-0.987,0.252-1.86,0.719-2.617,1.399
	C7.97,8.535,7.407,9.36,7.054,10.324c-0.343,0.935-0.447,1.898-0.324,2.887c0.063,0.508,0.19,0.998,0.376,1.476
	c0.167,0.428,0.387,0.827,0.636,1.214c0.017,0.027,0.027,0.07,0.019,0.102c-0.178,0.656-0.36,1.313-0.54,1.969
	C7.198,18.053,7.176,18.137,7.15,18.23"/>
<path fill="#FFFFFF" d="M10.45,9.007c0.075,0,0.15,0,0.225,0c0.089-0.001,0.168,0.03,0.217,0.102C10.949,9.192,11,9.281,11.04,9.373
	c0.195,0.457,0.385,0.916,0.576,1.374c0.041,0.099,0.037,0.195-0.008,0.294c-0.116,0.254-0.307,0.451-0.493,0.653
	c-0.116,0.126-0.131,0.211-0.045,0.357c0.521,0.88,1.218,1.575,2.146,2.027c0.147,0.07,0.299,0.137,0.448,0.201
	c0.144,0.061,0.242,0.043,0.341-0.075c0.198-0.236,0.393-0.474,0.582-0.716c0.118-0.152,0.199-0.192,0.379-0.118
	c0.256,0.104,0.506,0.223,0.756,0.341c0.259,0.122,0.514,0.254,0.772,0.375c0.132,0.063,0.19,0.155,0.185,0.299
	c-0.01,0.256-0.057,0.502-0.152,0.738c-0.07,0.174-0.205,0.301-0.35,0.415c-0.229,0.18-0.479,0.319-0.761,0.401
	c-0.224,0.065-0.456,0.068-0.687,0.064c-0.348-0.006-0.67-0.119-0.992-0.229c-0.776-0.26-1.491-0.631-2.124-1.151
	c-0.419-0.344-0.803-0.724-1.153-1.135c-0.315-0.371-0.609-0.758-0.864-1.172c-0.222-0.36-0.396-0.742-0.466-1.163
	C9.01,10.433,9.195,9.802,9.71,9.271c0.118-0.122,0.245-0.228,0.416-0.255c0.106-0.017,0.216-0.014,0.324-0.02
	C10.45,8.999,10.45,9.003,10.45,9.007"/>
</svg>
